<svg width="188" height="48" viewBox="0 0 188 48" fill="none" xmlns="http://www.w3.org/2000/svg">
<path d="M7.58227 23.8968C7.81905 24.7178 8.11381 25.5629 8.4569 26.4225C11.4915 34.0091 11.7187 39.2295 11.3562 42.3298C11.2277 42.9291 11.3186 43.5545 11.6123 44.0925C12.2067 45.1356 13.4099 45.5412 14.9224 45.5412C17.1549 45.5412 20.0687 44.6575 22.7265 43.6095C23.1352 44.3328 23.7284 44.935 24.4456 45.3549C25.1628 45.7748 25.9785 45.9974 26.8097 46C27.3018 46.0004 27.7909 45.9238 28.2594 45.773C29.4433 45.392 30.4277 44.5573 30.9967 43.4519C31.5656 42.3465 31.6725 41.0607 31.294 39.8766C31.2553 39.7559 31.207 39.6351 31.1587 39.5192C34.7829 37.4909 38.1591 35.0486 41.2194 32.2417C44.2154 29.3441 45.2688 27.0793 44.3507 25.4808C44.0899 25.0393 43.7028 24.6861 43.2393 24.4667L43.1764 24.4329C40.3302 23.2062 35.8653 20.357 30.7818 13.7362C30.2164 13.0022 29.6365 12.3164 29.0567 11.6935C27.6467 10.1864 25.8859 9.05089 23.9309 8.38785C21.976 7.7248 19.8873 7.55478 17.8507 7.89291L15.8744 4.4159C15.5936 3.87999 15.2078 3.40606 14.7398 3.02237C14.2719 2.63868 13.7314 2.35308 13.1507 2.18261C12.5699 2.01214 11.9608 1.96029 11.3595 2.03014C10.7583 2.1 10.1773 2.29013 9.65114 2.5892C9.125 2.88827 8.66451 3.29015 8.29713 3.77089C7.92974 4.25163 7.66298 4.80138 7.51275 5.38736C7.36252 5.97334 7.3319 6.58356 7.42271 7.18162C7.51353 7.77968 7.72391 8.35334 8.04133 8.8684L10.0225 12.3454C8.6967 13.9219 7.78037 15.8008 7.35471 17.8157C6.92906 19.8306 7.00722 21.9193 7.58227 23.8968ZM13.7095 42.9045C13.7095 42.9045 13.7095 42.8659 13.7095 42.8465C13.7095 42.7113 13.7434 42.5664 13.7579 42.4216C14.2411 41.0984 17.0293 37.8049 23.142 33.8739L24.2631 37.3606C23.6085 37.7801 23.069 38.3562 22.6935 39.0367C22.318 39.7172 22.1184 40.4806 22.1128 41.2577C16.546 43.4695 14.0043 43.2474 13.7095 42.9045ZM28.8392 42.354C28.5975 42.8227 28.2006 43.1932 27.7162 43.4023C27.2318 43.6115 26.6898 43.6462 26.1826 43.5008C25.6754 43.3553 25.2344 43.0385 24.9346 42.6045C24.6349 42.1705 24.495 41.6461 24.5389 41.1205C24.5827 40.595 24.8075 40.1009 25.1749 39.7225C25.5424 39.344 26.0298 39.1046 26.5541 39.045C27.0784 38.9855 27.6072 39.1094 28.0503 39.3958C28.4934 39.6821 28.8234 40.1132 28.9842 40.6155C29.0758 40.8997 29.1102 41.1992 29.0853 41.4968C29.0604 41.7944 28.9768 42.0841 28.8392 42.3491V42.354ZM29.6655 37.5924C29.4441 37.4222 29.208 37.2719 28.96 37.1433C28.2258 36.763 27.4036 36.5846 26.5777 36.6265L25.2779 32.57L26.3651 31.9374C33.57 27.8374 39.5716 26.0989 41.7799 26.4853C41.8924 26.504 42.0026 26.5348 42.1085 26.577L42.1907 26.6157L42.2486 26.6495C42.5531 27.5235 39.1367 32.1885 29.6655 37.5924ZM10.9262 4.82638C11.4082 4.55277 11.9791 4.48148 12.5136 4.62815C13.0481 4.77483 13.5026 5.12749 13.7772 5.60871L15.4346 8.50622C14.1183 8.99392 12.8908 9.69375 11.8008 10.5779L10.1433 7.68042C10.007 7.44171 9.91914 7.17847 9.88471 6.90578C9.85028 6.63309 9.86998 6.35629 9.94268 6.09121C10.0154 5.82613 10.1397 5.57798 10.3084 5.36095C10.4772 5.14392 10.6871 4.96226 10.9262 4.82638ZM14.7388 11.5148C16.732 10.3568 19.0588 9.90738 21.3401 10.2397C23.6215 10.5721 25.7231 11.6666 27.3026 13.3451C27.8293 13.9101 28.3608 14.533 28.8779 15.2091C32.3184 19.6906 35.5319 22.5591 38.2186 24.3846C34.7249 25.1379 30.0521 27.0648 25.1716 29.8367C21.789 31.7684 16.8263 35.0715 13.8448 38.2588C13.6322 35.0088 12.8107 30.7784 10.7087 25.5243C10.3946 24.7419 10.124 23.9644 9.9114 23.2207C9.27879 21.0114 9.41132 18.6532 10.2875 16.5286C11.1637 14.4039 12.7322 12.6372 14.7388 11.5148Z" fill="#FBFBFB" stroke="#FBFBFB" stroke-width="0.611112"/>
<path d="M13.5113 24.4039C14.321 26.4152 15.01 28.4728 15.5747 30.566C15.6135 30.7215 15.6828 30.8677 15.7787 30.9961C15.8746 31.1245 15.9952 31.2326 16.1333 31.314C16.2714 31.3954 16.4244 31.4485 16.5832 31.4702C16.7421 31.4919 16.9037 31.4818 17.0586 31.4404C17.2135 31.3991 17.3586 31.3273 17.4855 31.2293C17.6124 31.1314 17.7185 31.0091 17.7976 30.8697C17.8767 30.7304 17.9273 30.5766 17.9464 30.4175C17.9654 30.2584 17.9526 30.0971 17.9086 29.943C17.3189 27.7563 16.5992 25.6068 15.7535 23.5057C15.5022 22.8731 15.2703 22.2694 15.1253 21.6996C14.8351 20.6608 14.9048 19.5544 15.3233 18.5602C15.7417 17.566 16.4843 16.7425 17.4303 16.2233C17.5683 16.145 17.6895 16.0403 17.787 15.9151C17.8846 15.79 17.9565 15.6469 17.9986 15.4939C18.0408 15.341 18.0524 15.1813 18.0329 15.0239C18.0133 14.8665 17.9629 14.7145 17.8845 14.5765C17.8061 14.4386 17.7013 14.3175 17.5761 14.22C17.4509 14.1225 17.3077 14.0507 17.1547 14.0085C17.0017 13.9664 16.8418 13.9547 16.6843 13.9743C16.5268 13.9939 16.3747 14.0443 16.2367 14.1226C14.8174 14.9088 13.7059 16.1517 13.083 17.6492C12.4601 19.1468 12.3624 20.8108 12.8058 22.3708C12.9943 23.018 13.2311 23.7037 13.5113 24.4039Z" fill="#FBFBFB" stroke="#FBFBFB" stroke-width="0.611112"/>
<path d="M40.9586 15.4168L43.1186 13.0457C43.3346 12.8088 43.4475 12.4958 43.4325 12.1756C43.4176 11.8555 43.276 11.5544 43.0389 11.3386C42.8018 11.1228 42.4886 11.0099 42.1683 11.0249C41.8479 11.0398 41.5466 11.1813 41.3307 11.4183L39.1707 13.7894C38.9548 14.0263 38.8418 14.3393 38.8568 14.6595C38.8717 14.9796 39.0133 15.2807 39.2504 15.4965C39.4875 15.7123 39.8007 15.8252 40.121 15.8102C40.4414 15.7953 40.7427 15.6538 40.9586 15.4168Z" fill="#FFCE54"/>
<path d="M45.4337 17.7396L42.2638 18.7054C42.1121 18.7524 41.9712 18.8287 41.849 18.9301C41.7269 19.0314 41.6259 19.1558 41.5519 19.2962C41.4778 19.4365 41.4322 19.5901 41.4175 19.7481C41.4029 19.9061 41.4195 20.0654 41.4664 20.217C41.5134 20.3685 41.5898 20.5094 41.6912 20.6315C41.7926 20.7535 41.9171 20.8544 42.0576 20.9284C42.198 21.0024 42.3517 21.048 42.5098 21.0627C42.6678 21.0773 42.8273 21.0607 42.9789 21.0138L46.1489 20.048C46.4552 19.9532 46.7112 19.7407 46.8608 19.4572C47.0103 19.1737 47.041 18.8425 46.9462 18.5364C46.8513 18.2303 46.6387 17.9744 46.3551 17.825C46.0714 17.6755 45.74 17.6448 45.4337 17.7396Z" fill="#FFCE54"/>
<path d="M34.5613 13.7507C34.839 13.7496 35.1078 13.653 35.3226 13.4771C35.5373 13.3012 35.6849 13.0567 35.7404 12.7848L36.4169 9.53963C36.4606 9.23495 36.3862 8.92508 36.2089 8.67338C36.0316 8.42168 35.7649 8.24716 35.4631 8.18549C35.1614 8.12382 34.8474 8.17967 34.5855 8.3416C34.3236 8.50354 34.1334 8.75934 34.0539 9.05671L33.3774 12.3019C33.3416 12.4774 33.3453 12.6586 33.3882 12.8324C33.431 13.0062 33.5121 13.1684 33.6254 13.307C33.7387 13.4457 33.8815 13.5575 34.0434 13.6342C34.2052 13.7109 34.3822 13.7507 34.5613 13.7507Z" fill="#FFCE54"/>
<path d="M1.5765 36.6604L4.71745 36.0133C4.87292 35.9816 5.02062 35.9196 5.15211 35.8309C5.28361 35.7421 5.39632 35.6283 5.48382 35.4961C5.57132 35.3638 5.63189 35.2156 5.66207 35.0599C5.69226 34.9042 5.69146 34.7441 5.65973 34.5887C5.628 34.4334 5.56596 34.2857 5.47715 34.1543C5.38834 34.0229 5.2745 33.9103 5.14213 33.8228C5.00976 33.7354 4.86145 33.6749 4.70567 33.6447C4.5499 33.6145 4.3897 33.6153 4.23423 33.647L1.09328 34.2941C0.772883 34.3262 0.478337 34.4841 0.274438 34.7331C0.070539 34.9822 -0.0260106 35.302 0.00602903 35.6222C0.0380687 35.9424 0.196073 36.2367 0.445283 36.4405C0.694493 36.6443 1.01449 36.7408 1.33489 36.7087C1.41684 36.7008 1.49779 36.6846 1.5765 36.6604Z" fill="#FFCE54"/>
<path d="M4.42723 41.0549C4.30527 41.16 4.20555 41.2883 4.13393 41.4324C4.06231 41.5765 4.02023 41.7335 4.01017 41.894C4.00011 42.0546 4.02227 42.2156 4.07535 42.3675C4.12843 42.5194 4.21135 42.6592 4.31925 42.7786C4.42715 42.898 4.55784 42.9947 4.70365 43.0629C4.84946 43.1311 5.00745 43.1695 5.16832 43.1758C5.32919 43.1822 5.48971 43.1563 5.64044 43.0998C5.79116 43.0432 5.92906 42.9571 6.04602 42.8466L8.51046 40.6251C8.63242 40.5201 8.73214 40.3918 8.80376 40.2477C8.87538 40.1036 8.91746 39.9466 8.92752 39.786C8.93758 39.6254 8.91541 39.4645 8.86234 39.3126C8.80926 39.1607 8.72634 39.0209 8.61844 38.9015C8.51054 38.7821 8.37985 38.6854 8.23404 38.6172C8.08823 38.549 7.93024 38.5106 7.76937 38.5042C7.6085 38.4979 7.44798 38.5238 7.29725 38.5803C7.14652 38.6369 7.00863 38.7229 6.89166 38.8335L4.42723 41.0549Z" fill="#FFCE54"/>
<path d="M5.89993 27.934L2.78315 26.8475C2.48104 26.7476 2.15168 26.7708 1.86663 26.9122C1.58157 27.0535 1.36384 27.3016 1.26073 27.6025C1.15762 27.9033 1.17746 28.2327 1.31594 28.519C1.45442 28.8054 1.70036 29.0255 2.00033 29.1317L5.13644 30.2038C5.42434 30.2607 5.72314 30.2109 5.97701 30.0638C6.23088 29.9166 6.42247 29.6821 6.51599 29.4041C6.6095 29.1261 6.59855 28.8236 6.48518 28.5531C6.37181 28.2825 6.16378 28.0625 5.89993 27.934Z" fill="#FFCE54"/>
<path d="M61.0633 13.1818V35H65.5377V20.7457H65.7188L71.3651 34.8935H74.412L80.0583 20.799H80.2394V35H84.7139V13.1818H79.0249L73.0164 27.8409H72.7607L66.7522 13.1818H61.0633ZM87.7645 35H101.731V31.1967H92.3774V13.1818H87.7645V35ZM122.285 13.1818H117.694V26.9034H117.502L108.084 13.1818H104.036V35H108.649V21.2678H108.809L118.301 35H122.285V13.1818ZM132.655 35.3196C137.619 35.3196 140.709 31.9212 140.709 26.8821C140.709 21.8111 137.619 18.4233 132.655 18.4233C127.69 18.4233 124.601 21.8111 124.601 26.8821C124.601 31.9212 127.69 35.3196 132.655 35.3196ZM132.676 31.804C130.386 31.804 129.214 29.7053 129.214 26.8501C129.214 23.995 130.386 21.8857 132.676 21.8857C134.924 21.8857 136.096 23.995 136.096 26.8501C136.096 29.7053 134.924 31.804 132.676 31.804ZM151.614 18.6364H148.535V14.7159H143.996V18.6364H141.759V22.0455H143.996V30.5682C143.975 33.7749 146.159 35.3622 149.451 35.2237C150.623 35.1811 151.454 34.9467 151.912 34.7976L151.198 31.4205C150.974 31.4631 150.495 31.5696 150.069 31.5696C149.163 31.5696 148.535 31.2287 148.535 29.9716V22.0455H151.614V18.6364ZM153.82 35H158.358V18.6364H153.82V35ZM156.1 16.527C157.453 16.527 158.561 15.4936 158.561 14.2259C158.561 12.9688 157.453 11.9354 156.1 11.9354C154.757 11.9354 153.649 12.9688 153.649 14.2259C153.649 15.4936 154.757 16.527 156.1 16.527ZM170.043 18.6364H166.794V17.5391C166.794 16.4311 167.242 15.7812 168.573 15.7812C169.117 15.7812 169.671 15.8984 170.033 16.0156L170.832 12.6065C170.267 12.4361 169.021 12.1591 167.625 12.1591C164.546 12.1591 162.256 13.8956 162.256 17.4538V18.6364H159.944V22.0455H162.256V35H166.794V22.0455H170.043V18.6364ZM174.868 41.1364C178.245 41.1364 180.035 39.4105 180.962 36.7685L187.322 18.6577L182.517 18.6364L179.097 30.6534H178.927L175.539 18.6364H170.766L176.636 35.4688L176.37 36.1612C175.773 37.6953 174.633 37.7699 173.035 37.2798L172.013 40.6676C172.663 40.9446 173.717 41.1364 174.868 41.1364Z" fill="#FBFBFB"/>
</svg>
