<svg width="47" height="46" viewBox="0 0 47 46" fill="none" xmlns="http://www.w3.org/2000/svg">
<path d="M7.58227 22.8968C7.81905 23.7178 8.11381 24.5629 8.4569 25.4225C11.4915 33.0091 11.7187 38.2295 11.3562 41.3298C11.2277 41.9291 11.3186 42.5545 11.6123 43.0925C12.2067 44.1356 13.4099 44.5412 14.9224 44.5412C17.1549 44.5412 20.0687 43.6575 22.7265 42.6095C23.1352 43.3328 23.7284 43.935 24.4456 44.3549C25.1628 44.7748 25.9785 44.9974 26.8097 45C27.3018 45.0004 27.7909 44.9238 28.2594 44.773C29.4433 44.392 30.4277 43.5573 30.9967 42.4519C31.5656 41.3465 31.6725 40.0607 31.294 38.8766C31.2553 38.7559 31.207 38.6351 31.1587 38.5192C34.7829 36.4909 38.1591 34.0486 41.2194 31.2417C44.2154 28.3441 45.2688 26.0793 44.3507 24.4808C44.0899 24.0393 43.7028 23.6861 43.2393 23.4667L43.1764 23.4329C40.3302 22.2062 35.8653 19.357 30.7818 12.7362C30.2164 12.0022 29.6365 11.3164 29.0567 10.6935C27.6467 9.18642 25.8859 8.05089 23.9309 7.38785C21.976 6.7248 19.8873 6.55478 17.8507 6.89291L15.8744 3.4159C15.5936 2.87999 15.2078 2.40606 14.7398 2.02237C14.2719 1.63868 13.7314 1.35308 13.1507 1.18261C12.5699 1.01214 11.9608 0.960289 11.3595 1.03014C10.7583 1.1 10.1773 1.29013 9.65114 1.5892C9.125 1.88827 8.66451 2.29015 8.29713 2.77089C7.92974 3.25163 7.66298 3.80138 7.51275 4.38736C7.36252 4.97334 7.3319 5.58356 7.42271 6.18162C7.51353 6.77968 7.72391 7.35334 8.04133 7.8684L10.0225 11.3454C8.6967 12.9219 7.78037 14.8008 7.35471 16.8157C6.92906 18.8306 7.00722 20.9193 7.58227 22.8968ZM13.7095 41.9045C13.7095 41.9045 13.7095 41.8659 13.7095 41.8465C13.7095 41.7113 13.7434 41.5664 13.7579 41.4216C14.2411 40.0984 17.0293 36.8049 23.142 32.8739L24.2631 36.3606C23.6085 36.7801 23.069 37.3562 22.6935 38.0367C22.318 38.7172 22.1184 39.4806 22.1128 40.2577C16.546 42.4695 14.0043 42.2474 13.7095 41.9045ZM28.8392 41.354C28.5975 41.8227 28.2006 42.1932 27.7162 42.4023C27.2318 42.6115 26.6898 42.6462 26.1826 42.5008C25.6754 42.3553 25.2344 42.0385 24.9346 41.6045C24.6349 41.1705 24.495 40.6461 24.5389 40.1205C24.5827 39.595 24.8075 39.1009 25.1749 38.7225C25.5424 38.344 26.0298 38.1046 26.5541 38.045C27.0784 37.9855 27.6072 38.1094 28.0503 38.3958C28.4934 38.6821 28.8234 39.1132 28.9842 39.6155C29.0758 39.8997 29.1102 40.1992 29.0853 40.4968C29.0604 40.7944 28.9768 41.0841 28.8392 41.3491V41.354ZM29.6655 36.5924C29.4441 36.4222 29.208 36.2719 28.96 36.1433C28.2258 35.763 27.4036 35.5846 26.5777 35.6265L25.2779 31.57L26.3651 30.9374C33.57 26.8374 39.5716 25.0989 41.7799 25.4853C41.8924 25.504 42.0026 25.5348 42.1085 25.577L42.1907 25.6157L42.2486 25.6495C42.5531 26.5235 39.1367 31.1885 29.6655 36.5924ZM10.9262 3.82638C11.4082 3.55277 11.9791 3.48148 12.5136 3.62815C13.0481 3.77483 13.5026 4.12749 13.7772 4.60871L15.4346 7.50622C14.1183 7.99392 12.8908 8.69375 11.8008 9.57793L10.1433 6.68042C10.007 6.44171 9.91914 6.17847 9.88471 5.90578C9.85028 5.63309 9.86998 5.35629 9.94268 5.09121C10.0154 4.82613 10.1397 4.57798 10.3084 4.36095C10.4772 4.14392 10.6871 3.96226 10.9262 3.82638ZM14.7388 10.5148C16.732 9.3568 19.0588 8.90738 21.3401 9.23973C23.6215 9.57208 25.7231 10.6666 27.3026 12.3451C27.8293 12.9101 28.3608 13.533 28.8779 14.2091C32.3184 18.6906 35.5319 21.5591 38.2186 23.3846C34.7249 24.1379 30.0521 26.0648 25.1716 28.8367C21.789 30.7684 16.8263 34.0715 13.8448 37.2588C13.6322 34.0088 12.8107 29.7784 10.7087 24.5243C10.3946 23.7419 10.124 22.9644 9.9114 22.2207C9.27879 20.0114 9.41132 17.6532 10.2875 15.5286C11.1637 13.4039 12.7322 11.6372 14.7388 10.5148Z" fill="#FBFBFB" stroke="#FBFBFB" stroke-width="0.611112"/>
<path d="M13.5113 23.4039C14.321 25.4152 15.01 27.4728 15.5747 29.566C15.6135 29.7215 15.6828 29.8677 15.7787 29.9961C15.8746 30.1245 15.9952 30.2326 16.1333 30.314C16.2714 30.3954 16.4244 30.4485 16.5832 30.4702C16.7421 30.4919 16.9037 30.4818 17.0586 30.4404C17.2135 30.3991 17.3586 30.3273 17.4855 30.2293C17.6124 30.1314 17.7185 30.0091 17.7976 29.8697C17.8767 29.7304 17.9273 29.5766 17.9464 29.4175C17.9654 29.2584 17.9526 29.0971 17.9086 28.943C17.3189 26.7563 16.5992 24.6068 15.7535 22.5057C15.5022 21.8731 15.2703 21.2694 15.1253 20.6996C14.8351 19.6608 14.9048 18.5544 15.3233 17.5602C15.7417 16.566 16.4843 15.7425 17.4303 15.2233C17.5683 15.145 17.6895 15.0403 17.787 14.9151C17.8846 14.79 17.9565 14.6469 17.9986 14.4939C18.0408 14.341 18.0524 14.1813 18.0329 14.0239C18.0133 13.8665 17.9629 13.7145 17.8845 13.5765C17.8061 13.4386 17.7013 13.3175 17.5761 13.22C17.4509 13.1225 17.3077 13.0507 17.1547 13.0085C17.0017 12.9664 16.8418 12.9547 16.6843 12.9743C16.5268 12.9939 16.3747 13.0443 16.2367 13.1226C14.8174 13.9088 13.7059 15.1517 13.083 16.6492C12.4601 18.1468 12.3624 19.8108 12.8058 21.3708C12.9943 22.018 13.2311 22.7037 13.5113 23.4039Z" fill="#FBFBFB" stroke="#FBFBFB" stroke-width="0.611112"/>
<path d="M40.9586 14.4168L43.1186 12.0457C43.3346 11.8088 43.4475 11.4958 43.4325 11.1756C43.4176 10.8555 43.276 10.5544 43.0389 10.3386C42.8018 10.1228 42.4886 10.0099 42.1683 10.0249C41.8479 10.0398 41.5466 10.1813 41.3307 10.4183L39.1707 12.7894C38.9548 13.0263 38.8418 13.3393 38.8568 13.6595C38.8717 13.9796 39.0133 14.2807 39.2504 14.4965C39.4875 14.7123 39.8007 14.8252 40.121 14.8102C40.4414 14.7953 40.7427 14.6538 40.9586 14.4168Z" fill="#FFCE54"/>
<path d="M45.4337 16.7396L42.2638 17.7054C42.1121 17.7524 41.9712 17.8287 41.849 17.9301C41.7269 18.0314 41.6259 18.1558 41.5519 18.2962C41.4778 18.4365 41.4322 18.5901 41.4175 18.7481C41.4029 18.9061 41.4195 19.0654 41.4664 19.217C41.5134 19.3685 41.5898 19.5094 41.6912 19.6315C41.7926 19.7535 41.9171 19.8544 42.0576 19.9284C42.198 20.0024 42.3517 20.048 42.5098 20.0627C42.6678 20.0773 42.8273 20.0607 42.9789 20.0138L46.1489 19.048C46.4552 18.9532 46.7112 18.7407 46.8608 18.4572C47.0103 18.1737 47.041 17.8425 46.9462 17.5364C46.8513 17.2303 46.6387 16.9744 46.3551 16.825C46.0714 16.6755 45.74 16.6448 45.4337 16.7396Z" fill="#FFCE54"/>
<path d="M34.5613 12.7507C34.839 12.7496 35.1078 12.653 35.3226 12.4771C35.5373 12.3012 35.6849 12.0567 35.7404 11.7848L36.4169 8.53963C36.4606 8.23495 36.3862 7.92508 36.2089 7.67338C36.0316 7.42168 35.7649 7.24716 35.4631 7.18549C35.1614 7.12382 34.8474 7.17967 34.5855 7.3416C34.3236 7.50354 34.1334 7.75934 34.0539 8.05671L33.3774 11.3019C33.3416 11.4774 33.3453 11.6586 33.3882 11.8324C33.431 12.0062 33.5121 12.1684 33.6254 12.307C33.7387 12.4457 33.8815 12.5575 34.0434 12.6342C34.2052 12.7109 34.3822 12.7507 34.5613 12.7507Z" fill="#FFCE54"/>
<path d="M1.5765 35.6604L4.71745 35.0133C4.87292 34.9816 5.02062 34.9196 5.15211 34.8309C5.28361 34.7421 5.39632 34.6283 5.48382 34.4961C5.57132 34.3638 5.63189 34.2156 5.66207 34.0599C5.69226 33.9042 5.69146 33.7441 5.65973 33.5887C5.628 33.4334 5.56596 33.2857 5.47715 33.1543C5.38834 33.0229 5.2745 32.9103 5.14213 32.8228C5.00976 32.7354 4.86145 32.6749 4.70567 32.6447C4.5499 32.6145 4.3897 32.6153 4.23423 32.647L1.09328 33.2941C0.772883 33.3262 0.478337 33.4841 0.274438 33.7331C0.070539 33.9822 -0.0260106 34.302 0.00602903 34.6222C0.0380687 34.9424 0.196073 35.2367 0.445283 35.4405C0.694493 35.6443 1.01449 35.7408 1.33489 35.7087C1.41684 35.7008 1.49779 35.6846 1.5765 35.6604Z" fill="#FFCE54"/>
<path d="M4.42723 40.0549C4.30527 40.16 4.20555 40.2883 4.13393 40.4324C4.06231 40.5765 4.02023 40.7335 4.01017 40.894C4.00011 41.0546 4.02227 41.2156 4.07535 41.3675C4.12843 41.5194 4.21135 41.6592 4.31925 41.7786C4.42715 41.898 4.55784 41.9947 4.70365 42.0629C4.84946 42.1311 5.00745 42.1695 5.16832 42.1758C5.32919 42.1822 5.48971 42.1563 5.64044 42.0998C5.79116 42.0432 5.92906 41.9571 6.04602 41.8466L8.51046 39.6251C8.63242 39.5201 8.73214 39.3918 8.80376 39.2477C8.87538 39.1036 8.91746 38.9466 8.92752 38.786C8.93758 38.6254 8.91541 38.4645 8.86234 38.3126C8.80926 38.1607 8.72634 38.0209 8.61844 37.9015C8.51054 37.7821 8.37985 37.6854 8.23404 37.6172C8.08823 37.549 7.93024 37.5106 7.76937 37.5042C7.6085 37.4979 7.44798 37.5238 7.29725 37.5803C7.14652 37.6369 7.00863 37.7229 6.89166 37.8335L4.42723 40.0549Z" fill="#FFCE54"/>
<path d="M5.89993 26.934L2.78315 25.8475C2.48104 25.7476 2.15168 25.7708 1.86663 25.9122C1.58157 26.0535 1.36384 26.3016 1.26073 26.6025C1.15762 26.9033 1.17746 27.2327 1.31594 27.519C1.45442 27.8054 1.70036 28.0255 2.00033 28.1317L5.13644 29.2038C5.42434 29.2607 5.72314 29.2109 5.97701 29.0638C6.23088 28.9166 6.42247 28.6821 6.51599 28.4041C6.6095 28.1261 6.59855 27.8236 6.48518 27.5531C6.37181 27.2825 6.16378 27.0625 5.89993 26.934Z" fill="#FFCE54"/>
</svg>
