<svg width="22" height="17" viewBox="0 0 22 17" xmlns="http://www.w3.org/2000/svg">
<path d="M11 17C10.8684 17.0008 10.7379 16.9756 10.6161 16.9258C10.4943 16.876 10.3834 16.8027 10.29 16.71L2.51999 8.93002C1.54536 7.94519 0.998657 6.61558 0.998657 5.23002C0.998657 3.84445 1.54536 2.51484 2.51999 1.53002C3.50226 0.550528 4.83283 0.000488281 6.21999 0.000488281C7.60716 0.000488281 8.93773 0.550528 9.91999 1.53002L11 2.61002L12.08 1.53002C13.0623 0.550528 14.3928 0.000488281 15.78 0.000488281C17.1672 0.000488281 18.4977 0.550528 19.48 1.53002C20.4546 2.51484 21.0013 3.84445 21.0013 5.23002C21.0013 6.61558 20.4546 7.94519 19.48 8.93002L11.71 16.71C11.6166 16.8027 11.5057 16.876 11.3839 16.9258C11.2621 16.9756 11.1316 17.0008 11 17Z" fill="black"/>
</svg>
