<svg width="126" height="118" viewBox="0 0 126 118" fill="none" xmlns="http://www.w3.org/2000/svg">
<path d="M20.5379 58.5849C21.1714 60.7814 21.9601 63.0425 22.878 65.3423C30.9972 85.6404 31.6048 99.6074 30.6352 107.902C30.2912 109.506 30.5344 111.179 31.3204 112.618C32.9106 115.409 36.1298 116.494 40.1765 116.494C46.1495 116.494 53.9454 114.13 61.0562 111.326C62.1498 113.261 63.7368 114.873 65.6557 115.996C67.5746 117.119 69.757 117.715 71.9808 117.722C73.2975 117.723 74.6062 117.518 75.8594 117.115C79.0271 116.095 81.6609 113.862 83.1831 110.904C84.7052 107.947 84.9913 104.507 83.9786 101.339C83.8752 101.016 83.7459 100.693 83.6166 100.383C93.3132 94.9558 102.346 88.4216 110.534 80.9115C118.55 73.1592 121.368 67.0995 118.912 62.8228C118.214 61.6417 117.178 60.6966 115.938 60.1095L115.77 60.0191C108.155 56.7373 96.2091 49.1142 82.6082 31.4002C81.0955 29.4363 79.5441 27.6016 77.9926 25.9349C74.2202 21.9028 69.5093 18.8647 64.2788 17.0907C59.0482 15.3167 53.4601 14.8618 48.0112 15.7665L42.7234 6.46373C41.9723 5.0299 40.94 3.7619 39.688 2.73534C38.436 1.70878 36.99 0.944671 35.4362 0.48858C33.8824 0.0324896 32.2526 -0.106246 30.6439 0.0806455C29.0353 0.267537 27.4808 0.77623 26.0732 1.57639C24.6655 2.37655 23.4334 3.4518 22.4505 4.73802C21.4676 6.02424 20.7538 7.49509 20.3519 9.06289C19.95 10.6307 19.868 12.2633 20.111 13.8634C20.354 15.4635 20.9169 16.9984 21.7661 18.3764L27.0669 27.6791C23.5196 31.8969 21.0679 36.9239 19.9291 42.3148C18.7902 47.7057 18.9994 53.2941 20.5379 58.5849ZM36.9314 109.44C36.9314 109.44 36.9314 109.337 36.9314 109.285C36.9314 108.923 37.0219 108.535 37.0607 108.148C38.3535 104.608 45.8133 95.7959 62.168 85.2786L65.1675 94.6072C63.4161 95.7295 61.9727 97.2709 60.968 99.0916C59.9634 100.912 59.4293 102.955 59.4142 105.034C44.5205 110.952 37.72 110.357 36.9314 109.44ZM77.4109 107.967C76.7641 109.221 75.7023 110.212 74.4062 110.772C73.1102 111.331 71.6601 111.424 70.3031 111.035C68.946 110.646 67.766 109.799 66.9641 108.637C66.1622 107.476 65.788 106.073 65.9052 104.667C66.0225 103.261 66.6239 101.939 67.6071 100.926C68.5903 99.9139 69.8943 99.2733 71.2971 99.114C72.6999 98.9546 74.1146 99.2862 75.3001 100.052C76.4856 100.818 77.3686 101.972 77.7987 103.316C78.0439 104.076 78.1359 104.877 78.0693 105.674C78.0027 106.47 77.7789 107.245 77.4109 107.954V107.967ZM79.6217 95.2274C79.0291 94.772 78.3975 94.3699 77.7341 94.0258C75.7697 93.0083 73.57 92.5312 71.3603 92.6433L67.8825 81.7901L70.7914 80.0975C90.068 69.128 106.125 64.4767 112.034 65.5103C112.335 65.5605 112.629 65.6428 112.913 65.7558L113.133 65.8592L113.288 65.9496C114.102 68.2882 104.962 80.7694 79.6217 95.2274ZM29.4845 7.56197C30.7741 6.82993 32.3016 6.63919 33.7317 7.03162C35.1618 7.42406 36.3777 8.36759 37.1124 9.65509L41.5469 17.4074C38.0251 18.7122 34.7409 20.5846 31.8246 22.9503L27.3901 15.198C27.0253 14.5593 26.7902 13.855 26.6981 13.1254C26.606 12.3958 26.6587 11.6552 26.8532 10.946C27.0477 10.2368 27.3802 9.57288 27.8318 8.99221C28.2833 8.41154 28.8449 7.92553 29.4845 7.56197ZM39.6852 25.4568C45.0179 22.3586 51.2432 21.1562 57.3471 22.0454C63.451 22.9346 69.0738 25.863 73.2996 30.3537C74.7088 31.8654 76.1309 33.5321 77.5143 35.341C86.7195 47.3312 95.317 55.006 102.505 59.8899C93.1579 61.9055 80.6559 67.0608 67.598 74.4771C58.548 79.6453 45.2703 88.4829 37.2934 97.0104C36.7245 88.3149 34.5267 76.9966 28.9027 62.9391C28.0624 60.846 27.3384 58.7658 26.7695 56.7761C25.077 50.8649 25.4315 44.5557 27.7758 38.8711C30.12 33.1865 34.3166 28.4597 39.6852 25.4568Z" fill="#262A33"/>
<path d="M36.4003 59.9417C38.5666 65.3227 40.41 70.828 41.9209 76.4282C42.0246 76.8442 42.2102 77.2354 42.4668 77.579C42.7234 77.9226 43.0458 78.2117 43.4154 78.4295C43.7849 78.6473 44.1941 78.7893 44.6192 78.8474C45.0442 78.9055 45.4766 78.8784 45.8911 78.7678C46.3056 78.6572 46.6939 78.4652 47.0333 78.203C47.3728 77.9409 47.6566 77.6138 47.8683 77.2409C48.08 76.868 48.2153 76.4567 48.2663 76.0311C48.3173 75.6054 48.283 75.1738 48.1654 74.7615C46.5875 68.9111 44.662 63.1599 42.3992 57.5385C41.7269 55.8459 41.1064 54.2308 40.7185 52.7062C39.942 49.9269 40.1287 46.9667 41.2482 44.3068C42.3678 41.6469 44.3545 39.4434 46.8854 38.0544C47.2547 37.8449 47.5791 37.5647 47.84 37.2299C48.1009 36.895 48.2933 36.5121 48.4061 36.103C48.519 35.6939 48.5501 35.2665 48.4977 34.8454C48.4453 34.4243 48.3104 34.0176 48.1007 33.6485C47.8911 33.2795 47.6107 32.9553 47.2757 32.6946C46.9406 32.4338 46.5575 32.2416 46.1481 32.1288C45.7387 32.016 45.3111 31.9849 44.8897 32.0373C44.4683 32.0896 44.0613 32.2245 43.6921 32.434C39.8947 34.5375 36.921 37.8629 35.2544 41.8695C33.5879 45.8761 33.3265 50.3283 34.5128 54.5022C35.017 56.2335 35.6505 58.0682 36.4003 59.9417Z" fill="#262A33"/>
<path d="M109.835 35.8968L115.614 29.5528C116.192 28.9189 116.494 28.0815 116.454 27.225C116.414 26.3684 116.035 25.5628 115.401 24.9854C114.766 24.408 113.929 24.1061 113.071 24.1461C112.214 24.186 111.408 24.5647 110.83 25.1986L105.051 31.5425C104.474 32.1765 104.172 33.0138 104.212 33.8704C104.252 34.7269 104.63 35.5325 105.265 36.1099C105.899 36.6873 106.737 36.9893 107.594 36.9493C108.451 36.9093 109.257 36.5307 109.835 35.8968Z" fill="#FFCE54"/>
<path d="M121.808 42.1113L113.327 44.6954C112.921 44.8209 112.544 45.0251 112.217 45.2963C111.89 45.5675 111.62 45.9004 111.422 46.2759C111.224 46.6514 111.102 47.0623 111.063 47.485C111.023 47.9077 111.068 48.3339 111.194 48.7395C111.319 49.145 111.524 49.5218 111.795 49.8484C112.066 50.175 112.399 50.445 112.775 50.643C113.151 50.8409 113.562 50.963 113.985 51.0022C114.408 51.0414 114.834 50.9969 115.24 50.8713L123.721 48.2873C124.541 48.0337 125.226 47.4651 125.626 46.7067C126.026 45.9483 126.108 45.0621 125.855 44.2431C125.601 43.4242 125.032 42.7394 124.273 42.3396C123.514 41.9398 122.627 41.8577 121.808 42.1113Z" fill="#FFCE54"/>
<path d="M92.7196 31.4389C93.4625 31.4361 94.1818 31.1776 94.7563 30.7069C95.3309 30.2363 95.7256 29.5822 95.8742 28.8548L97.6842 20.1722C97.8012 19.357 97.6021 18.528 97.1278 17.8546C96.6535 17.1812 95.9397 16.7142 95.1323 16.5492C94.325 16.3842 93.4851 16.5336 92.7843 16.9669C92.0835 17.4002 91.5748 18.0846 91.3621 18.8802L89.5521 27.5627C89.4563 28.0321 89.466 28.5169 89.5808 28.982C89.6955 29.4471 89.9124 29.8809 90.2156 30.2519C90.5188 30.623 90.9007 30.922 91.3338 31.1272C91.7669 31.3325 92.2403 31.439 92.7196 31.4389Z" fill="#FFCE54"/>
<path d="M4.46891 92.734L12.8725 91.0026C13.2885 90.9178 13.6836 90.7519 14.0354 90.5145C14.3873 90.277 14.6888 89.9726 14.9229 89.6187C15.157 89.2647 15.3191 88.8682 15.3998 88.4517C15.4806 88.0351 15.4785 87.6068 15.3936 87.1911C15.3087 86.7754 15.1427 86.3805 14.9051 86.0289C14.6675 85.6773 14.3629 85.3759 14.0087 85.142C13.6546 84.908 13.2578 84.746 12.841 84.6653C12.4242 84.5846 11.9956 84.5868 11.5796 84.6716L3.17604 86.4029C2.31882 86.4886 1.53077 86.9111 0.985235 87.5774C0.439703 88.2438 0.181385 89.0994 0.267107 89.9561C0.352829 90.8128 0.77557 91.6003 1.44233 92.1455C2.10909 92.6907 2.96526 92.9488 3.82248 92.8632C4.04174 92.8419 4.25831 92.7986 4.46891 92.734Z" fill="#FFCE54"/>
<path d="M12.0953 104.491C11.769 104.772 11.5022 105.116 11.3106 105.501C11.119 105.887 11.0064 106.307 10.9795 106.736C10.9525 107.166 11.0118 107.597 11.1538 108.003C11.2959 108.41 11.5177 108.784 11.8064 109.103C12.0951 109.423 12.4447 109.681 12.8349 109.864C13.225 110.046 13.6477 110.149 14.0781 110.166C14.5085 110.183 14.938 110.114 15.3412 109.962C15.7445 109.811 16.1134 109.581 16.4264 109.285L23.02 103.342C23.3463 103.06 23.6131 102.717 23.8047 102.332C23.9963 101.946 24.1089 101.526 24.1358 101.096C24.1627 100.667 24.1034 100.236 23.9614 99.8297C23.8194 99.4233 23.5975 99.0494 23.3089 98.7299C23.0202 98.4104 22.6705 98.1518 22.2804 97.9692C21.8903 97.7867 21.4676 97.684 21.0372 97.667C20.6068 97.6501 20.1773 97.7193 19.774 97.8706C19.3708 98.0219 19.0018 98.2522 18.6889 98.548L12.0953 104.491Z" fill="#FFCE54"/>
<path d="M16.0353 69.3865L7.69633 66.4794C6.88803 66.2121 6.00684 66.2743 5.24418 66.6525C4.48151 67.0307 3.89897 67.6944 3.6231 68.4993C3.34723 69.3043 3.40032 70.1855 3.77082 70.9516C4.14133 71.7177 4.79933 72.3067 5.60189 72.5908L13.9926 75.4591C14.7628 75.6114 15.5623 75.4783 16.2415 75.0846C16.9207 74.6909 17.4333 74.0635 17.6835 73.3197C17.9337 72.5759 17.9044 71.7665 17.6011 71.0427C17.2978 70.3189 16.7412 69.7301 16.0353 69.3865Z" fill="#FFCE54"/>
</svg>
