<svg viewBox="0 0 271 349" fill="none" xmlns="http://www.w3.org/2000/svg">
<path d="M25.1132 0.870541C23.9371 -0.29652 22.0376 -0.289218 20.8705 0.88685L1.85219 20.052C0.685129 21.2281 0.692432 23.1275 1.8685 24.2946C3.04457 25.4617 4.94405 25.4544 6.11111 24.2783L23.0163 7.24261L40.052 24.1478C41.2281 25.3149 43.1275 25.3076 44.2946 24.1315C45.4617 22.9554 45.4544 21.056 44.2783 19.8889L25.1132 0.870541ZM269.419 340.233C229.313 348.149 168.883 340.995 118.313 293.546C67.7516 246.106 26.5957 157.954 26 2.98847L20 3.01153C20.5995 158.95 62.0259 248.962 114.207 297.922C166.379 346.873 228.852 354.355 270.581 346.12L269.419 340.233Z" fill="#FBFBFB"/>
</svg>
