<svg width="72" height="58" viewBox="0 0 72 58" fill="none" xmlns="http://www.w3.org/2000/svg">
<path d="M23.2727 44.5732L6.93037 27.4016C6.83599 27.3024 6.70508 27.2463 6.56818 27.2463C6.43128 27.2463 6.30037 27.3024 6.20599 27.4016L0.637809 33.2523C0.454064 33.4454 0.454064 33.7486 0.637809 33.9417L22.9105 57.3447C23.0049 57.4439 23.1358 57.5 23.2727 57.5C23.4096 57.5 23.5405 57.4439 23.6349 57.3447L71.3622 7.19545C71.5459 7.00238 71.5459 6.69912 71.3622 6.50605L65.794 0.655301C65.6996 0.556133 65.5687 0.5 65.4318 0.5C65.2949 0.5 65.164 0.556133 65.0696 0.655301L23.2727 44.5732Z" fill="#48CFAD" stroke="#48CFAD" stroke-linecap="round" stroke-linejoin="round"/>
</svg>
