<svg width="118" height="30" viewBox="0 0 118 30" fill="none" xmlns="http://www.w3.org/2000/svg">
<path fill-rule="evenodd" clip-rule="evenodd" d="M35.8151 6.40417C38.0778 6.40417 39.7518 7.27499 40.8671 8.67409V6.83909H44.8659V22.3872H40.8671V20.5531C39.7518 21.9523 38.0778 22.8231 35.8151 22.8231C31.6922 22.8231 28.2831 19.2464 28.2831 14.6131C28.2831 9.97982 31.6922 6.40417 35.8151 6.40417ZM32.2858 14.6131C32.2858 17.2255 34.1149 18.9983 36.5638 18.9983C39.0389 18.9983 40.872 17.2246 40.872 14.6131C40.872 12.0017 39.0438 10.2289 36.5638 10.2289C34.1101 10.2289 32.2858 12.0007 32.2858 14.6131Z" fill="#111827"/>
<path fill-rule="evenodd" clip-rule="evenodd" d="M51.8712 8.67409C52.9865 7.24385 54.6295 6.40417 56.8922 6.40417C61.0461 6.40417 64.4571 9.97885 64.4571 14.6131C64.4571 19.2474 61.0461 22.8231 56.8922 22.8231C54.6295 22.8231 52.9865 21.9834 51.8712 20.5531V28.6054H47.8724V6.83909H51.8712V8.67409ZM51.8712 14.6131C51.8712 17.2255 53.6994 18.9983 56.1483 18.9983C58.6282 18.9983 60.4574 17.2246 60.4574 14.6131C60.4574 12.0017 58.6282 10.2289 56.1483 10.2289C53.6994 10.2289 51.8712 12.0007 51.8712 14.6131Z" fill="#111827"/>
<path fill-rule="evenodd" clip-rule="evenodd" d="M65.8499 14.6131C65.8499 9.97982 69.4752 6.40417 74.0336 6.40417C78.59 6.40417 82.2444 9.97885 82.2444 14.6131C82.2444 19.2474 78.5909 22.8231 74.0336 22.8231C69.4762 22.8231 65.8499 19.2464 65.8499 14.6131ZM69.8486 14.6131C69.8486 17.1321 71.6778 18.9049 74.0336 18.9049C76.4194 18.9049 78.2486 17.1312 78.2486 14.6131C78.2486 12.0951 76.4194 10.3223 74.0336 10.3223C71.6778 10.3223 69.8486 12.0941 69.8486 14.6131Z" fill="#111827"/>
<path d="M88.4515 9.51374V6.83908H84.4476V22.3871H88.4515V14.9556C88.4515 11.6903 91.0855 10.7572 93.1618 11.0063V6.53064C91.2051 6.5287 89.2524 7.39464 88.4515 9.51374Z" fill="#111827"/>
<path d="M96.8457 0.0290527C95.5129 0.0290527 94.3968 1.17911 94.3968 2.51695C94.3968 3.88238 95.5 4.98927 96.8611 4.98927C98.2221 4.98927 99.3253 3.88238 99.3253 2.51695C99.3108 1.14907 98.2092 0.0437906 96.8457 0.0290527Z" fill="#111827"/>
<path d="M98.861 6.83899H94.8623V22.3871H98.861V6.83899Z" fill="#111827"/>
<path fill-rule="evenodd" clip-rule="evenodd" d="M113.677 8.67409V6.83909H117.675V22.3872H113.677V20.5531C112.561 21.9523 110.888 22.8231 108.625 22.8231C104.502 22.8231 101.092 19.2464 101.092 14.6131C101.092 9.97982 104.502 6.40417 108.625 6.40417C110.888 6.40417 112.561 7.27499 113.677 8.67409ZM105.09 14.616C105.09 17.2285 106.919 19.0012 109.368 19.0012V18.9983C111.849 18.9983 113.677 17.2275 113.677 14.616C113.677 12.0046 111.849 10.2318 109.368 10.2318C106.919 10.2318 105.09 12.0036 105.09 14.616Z" fill="#111827"/>
<path d="M19.5001 8.06205L11.4609 0L3.42459 8.06205C0.332521 11.1633 -0.711748 15.7692 0.739042 19.907C1.14114 17.7396 2.18955 15.7456 3.74562 14.1889L11.4589 6.44789L19.1752 14.1889C20.7333 15.7441 21.7821 17.7388 22.1817 19.907C23.6335 15.7699 22.5908 11.1641 19.5001 8.06205Z" fill="#48CFAD"/>
<path fill-rule="evenodd" clip-rule="evenodd" d="M6.32155 16.7652L11.4618 11.6084L16.6079 16.7652C17.9722 18.1337 18.7386 19.9899 18.7386 21.9253C18.7386 23.8608 17.9722 25.717 16.6079 27.0855C13.7673 29.9349 9.16211 29.9349 6.32155 27.0855C4.9573 25.717 4.19086 23.8608 4.19086 21.9253C4.19086 19.9899 4.9573 18.1337 6.32155 16.7652ZM10.4175 24.4619C11.4372 24.8854 12.6108 24.651 13.3909 23.8679V23.863C14.4529 22.7951 14.4529 21.0663 13.3909 19.9983C12.6108 19.2153 11.4372 18.9808 10.4175 19.4043C9.39778 19.8279 8.73294 20.826 8.73294 21.9331C8.73294 23.0403 9.39778 24.0384 10.4175 24.4619Z" fill="#48CFAD"/>
</svg>
