<svg viewBox="0 0 22 29" xmlns="http://www.w3.org/2000/svg">
<path fill-rule="evenodd" clip-rule="evenodd" d="M10.9985 3L17.3644 9.34453C18.5637 10.5407 19.3993 12.0506 19.775 13.6999C20.1508 15.3492 20.0512 17.0708 19.4879 18.6661C19.1715 16.9597 18.341 15.39 17.1071 14.1661L10.997 8.07425L4.88913 14.1661C3.65694 15.3912 2.82675 16.9604 2.50835 18.6661C1.94542 17.0705 1.84638 15.3487 2.22265 13.6994C2.59891 12.0501 3.43516 10.5404 4.63492 9.34453L10.9985 3ZM6.92883 16.1938L10.9992 12.1356L15.0742 16.1938C15.6091 16.727 16.0334 17.3601 16.3229 18.0569C16.6124 18.7536 16.7614 19.5004 16.7614 20.2546C16.7614 21.0088 16.6124 21.7556 16.3229 22.4524C16.0334 23.1491 15.6091 23.7822 15.0742 24.3155C13.994 25.3923 12.529 25.9973 11.0015 25.9973C9.47398 25.9973 8.00902 25.3923 6.92883 24.3155C6.39393 23.7822 5.96961 23.1491 5.68012 22.4524C5.39063 21.7556 5.24163 21.0088 5.24163 20.2546C5.24163 19.5004 5.39063 18.7536 5.68012 18.0569C5.96961 17.3601 6.39393 16.727 6.92883 16.1938ZM11.4206 22.3732C11.8397 22.29 12.2247 22.0847 12.5267 21.7833V21.7795C12.9306 21.3759 13.1574 20.829 13.1574 20.2588C13.1574 19.6887 12.9306 19.1418 12.5267 18.7382C12.2247 18.4368 11.8397 18.2315 11.4206 18.1483C11.0015 18.0651 10.5671 18.1077 10.1722 18.2707C9.77741 18.4337 9.43993 18.7097 9.20249 19.064C8.96505 19.4182 8.83831 19.8347 8.83831 20.2608C8.83831 20.6868 8.96505 21.1033 9.20249 21.4575C9.43993 21.8118 9.77741 22.0878 10.1722 22.2508C10.5671 22.4138 11.0015 22.4564 11.4206 22.3732Z" fill="#48CFAD"/>
</svg>
