<svg width="704" height="663" viewBox="0 0 704 663" fill="none" xmlns="http://www.w3.org/2000/svg">
<path d="M113.58 329.899C117.127 342.23 121.542 354.924 126.681 367.836C172.136 481.79 175.538 560.202 170.109 606.77C168.184 615.771 169.545 625.166 173.946 633.246C182.848 648.914 200.871 655.007 223.526 655.007C256.966 655.007 300.611 641.733 340.42 625.992C346.543 636.857 355.428 645.902 366.171 652.209C376.913 658.515 389.131 661.858 401.582 661.898C408.953 661.904 416.279 660.753 423.296 658.489C441.03 652.766 455.775 640.228 464.297 623.624C472.818 607.021 474.42 587.707 468.75 569.922C468.171 568.108 467.448 566.295 466.724 564.554C521.01 534.087 571.581 497.404 617.42 455.242C662.295 411.72 678.074 377.701 664.322 353.691C660.417 347.06 654.618 341.754 647.675 338.458L646.734 337.951C604.102 319.527 537.222 276.73 461.078 177.283C452.61 166.257 443.924 155.957 435.238 146.6C414.119 123.963 387.745 106.907 358.462 96.9481C329.179 86.9888 297.894 84.4351 267.388 89.5139L237.785 37.2878C233.58 29.2381 227.8 22.1195 220.791 16.3564C213.782 10.5932 205.687 6.30344 196.988 3.74292C188.289 1.1824 179.164 0.403527 170.159 1.45275C161.153 2.50197 152.45 5.3578 144.569 9.84995C136.688 14.3421 129.791 20.3786 124.288 27.5995C118.785 34.8204 114.789 43.0779 112.539 51.8796C110.289 60.6812 109.83 69.8469 111.19 78.83C112.551 87.8131 115.702 96.4298 120.456 104.166L150.132 156.392C130.273 180.071 116.548 208.293 110.172 238.558C103.796 268.823 104.967 300.196 113.58 329.899V329.899ZM205.359 615.402C205.359 615.402 205.359 614.822 205.359 614.532C205.359 612.501 205.865 610.325 206.082 608.148C213.32 588.274 255.084 538.804 346.645 479.759L363.437 532.13C353.632 538.431 345.551 547.085 339.927 557.306C334.302 567.528 331.312 578.995 331.228 590.667C247.846 623.889 209.774 620.552 205.359 615.402ZM431.981 607.133C428.361 614.174 422.416 619.739 415.16 622.88C407.904 626.021 399.786 626.543 392.188 624.358C384.591 622.173 377.985 617.416 373.496 610.897C369.006 604.377 366.911 596.5 367.567 588.606C368.224 580.713 371.591 573.291 377.095 567.607C382.6 561.922 389.9 558.326 397.754 557.432C405.607 556.537 413.527 558.399 420.164 562.7C426.801 567.001 431.745 573.475 434.153 581.02C435.525 585.289 436.04 589.788 435.667 594.258C435.295 598.728 434.042 603.079 431.981 607.06V607.133ZM444.358 535.612C441.041 533.056 437.505 530.798 433.791 528.866C422.793 523.154 410.478 520.475 398.107 521.105L378.637 460.174L394.923 450.672C502.842 389.089 592.738 362.976 625.816 368.779C627.501 369.06 629.151 369.522 630.738 370.157L631.968 370.737L632.837 371.245C637.397 384.374 586.224 454.444 444.358 535.612ZM163.668 43.4533C170.887 39.3436 179.439 38.2728 187.445 40.4759C195.452 42.6791 202.259 47.9762 206.372 55.2042L231.198 98.726C211.482 106.051 193.095 116.563 176.768 129.844L151.942 86.3223C149.9 82.7367 148.584 78.7828 148.068 74.6868C147.552 70.5909 147.847 66.4332 148.936 62.4516C150.025 58.47 151.887 54.7427 154.415 51.4828C156.942 48.2229 160.087 45.4944 163.668 43.4533V43.4533ZM220.776 143.916C250.631 126.523 285.483 119.772 319.655 124.764C353.827 129.756 385.306 146.196 408.964 171.407C416.854 179.894 424.816 189.251 432.56 199.406C484.095 266.72 532.228 309.807 572.471 337.225C520.14 348.541 450.149 377.483 377.045 419.119C326.378 448.133 252.044 497.748 207.385 545.622C204.2 496.805 191.896 433.263 160.41 354.344C155.706 342.593 151.652 330.915 148.468 319.744C138.992 286.558 140.977 251.138 154.101 219.225C167.226 187.311 190.72 160.775 220.776 143.916V143.916Z" fill="#717C89" stroke="#717C89" stroke-width="0.611112"/>
<path d="M202.384 337.516C214.512 367.726 224.832 398.633 233.291 430.073C233.872 432.408 234.91 434.605 236.347 436.533C237.784 438.462 239.589 440.086 241.658 441.308C243.727 442.531 246.018 443.328 248.397 443.654C250.777 443.98 253.197 443.828 255.518 443.207C257.838 442.586 260.012 441.508 261.913 440.037C263.813 438.565 265.402 436.729 266.587 434.635C267.773 432.542 268.53 430.233 268.815 427.843C269.101 425.453 268.909 423.03 268.25 420.716C259.417 387.871 248.637 355.584 235.969 324.025C232.205 314.522 228.731 305.455 226.559 296.896C222.212 281.293 223.257 264.674 229.525 249.741C235.793 234.808 246.915 222.438 261.085 214.64C263.152 213.464 264.968 211.891 266.429 210.011C267.89 208.131 268.967 205.982 269.598 203.685C270.23 201.388 270.404 198.989 270.111 196.624C269.818 194.26 269.062 191.977 267.889 189.905C266.715 187.833 265.145 186.013 263.269 184.55C261.394 183.086 259.249 182.006 256.957 181.373C254.665 180.74 252.271 180.565 249.912 180.859C247.553 181.153 245.274 181.91 243.207 183.087C221.947 194.896 205.299 213.565 195.969 236.058C186.639 258.552 185.176 283.546 191.817 306.979C194.64 316.699 198.186 326.999 202.384 337.516Z" fill="#717C89" stroke="#717C89" stroke-width="0.611112"/>
<path d="M613.506 202.526L645.86 166.911C649.095 163.352 650.786 158.651 650.562 153.842C650.338 149.033 648.217 144.51 644.666 141.269C641.115 138.027 636.424 136.332 631.625 136.557C626.827 136.781 622.314 138.907 619.08 142.466L586.726 178.081C583.491 181.64 581.8 186.341 582.024 191.15C582.248 195.959 584.369 200.481 587.92 203.723C591.471 206.964 596.162 208.659 600.96 208.435C605.759 208.21 610.272 206.085 613.506 202.526V202.526Z" fill="#FFCE54"/>
<path d="M680.535 237.415L633.054 251.922C630.782 252.627 628.671 253.774 626.841 255.296C625.012 256.819 623.499 258.687 622.39 260.796C621.281 262.904 620.598 265.21 620.378 267.583C620.159 269.956 620.408 272.35 621.111 274.626C621.814 276.903 622.958 279.018 624.477 280.852C625.997 282.685 627.861 284.201 629.965 285.313C632.069 286.424 634.37 287.109 636.738 287.329C639.106 287.549 641.494 287.3 643.766 286.595L691.247 272.087C695.835 270.664 699.671 267.472 701.911 263.214C704.151 258.956 704.611 253.981 703.19 249.384C701.77 244.786 698.585 240.942 694.336 238.697C690.087 236.453 685.123 235.991 680.535 237.415V237.415Z" fill="#FFCE54"/>
<path d="M517.678 177.5C521.837 177.484 525.864 176.033 529.08 173.391C532.297 170.749 534.507 167.077 535.339 162.993L545.472 114.249C546.127 109.672 545.012 105.018 542.357 101.237C539.701 97.4566 535.705 94.8352 531.185 93.9089C526.666 92.9826 521.963 93.8213 518.04 96.2537C514.117 98.6861 511.269 102.528 510.078 106.995L499.945 155.739C499.408 158.374 499.463 161.096 500.105 163.707C500.748 166.318 501.962 168.754 503.659 170.837C505.356 172.92 507.495 174.598 509.92 175.751C512.344 176.903 514.994 177.501 517.678 177.5Z" fill="#FFCE54"/>
<path d="M23.6139 521.614L70.6611 511.894C72.9898 511.418 75.2022 510.486 77.1718 509.153C79.1414 507.82 80.8297 506.111 82.1404 504.124C83.451 502.137 84.3582 499.911 84.8103 497.573C85.2624 495.234 85.2505 492.83 84.7753 490.496C84.3 488.162 83.3707 485.945 82.0405 483.971C80.7102 481.997 79.005 480.305 77.0223 478.992C75.0396 477.678 72.8181 476.769 70.4847 476.316C68.1514 475.863 65.7518 475.875 63.4231 476.351L16.3759 486.071C11.5768 486.552 7.16485 488.924 4.11072 492.665C1.05658 496.406 -0.389604 501.209 0.0903068 506.019C0.570218 510.828 2.93691 515.249 6.66975 518.31C10.4026 521.371 15.1958 522.82 19.9949 522.339C21.2225 522.22 22.4349 521.977 23.6139 521.614V521.614Z" fill="#FFCE54"/>
<path d="M66.3121 587.621C64.4853 589.199 62.9916 591.126 61.9189 593.291C60.8461 595.455 60.2158 597.813 60.0651 600.225C59.9145 602.637 60.2464 605.055 61.0414 607.336C61.8365 609.618 63.0786 611.717 64.6947 613.511C66.3109 615.305 68.2685 616.757 70.4525 617.781C72.6366 618.806 75.003 619.383 77.4126 619.478C79.8223 619.573 82.2266 619.185 84.4843 618.335C86.742 617.486 88.8075 616.193 90.5595 614.532L127.473 581.165C129.3 579.588 130.794 577.66 131.867 575.496C132.939 573.331 133.57 570.974 133.72 568.562C133.871 566.15 133.539 563.732 132.744 561.45C131.949 559.168 130.707 557.069 129.091 555.275C127.475 553.482 125.517 552.03 123.333 551.005C121.149 549.98 118.783 549.404 116.373 549.308C113.963 549.213 111.559 549.602 109.301 550.451C107.044 551.301 104.978 552.594 103.226 554.254L66.3121 587.621Z" fill="#FFCE54"/>
<path d="M88.372 390.54L41.6867 374.219C37.1615 372.719 32.2282 373.068 27.9585 375.191C23.6887 377.315 20.4274 381.04 18.883 385.56C17.3385 390.079 17.6357 395.026 19.71 399.327C21.7842 403.628 25.468 406.934 29.9611 408.529L76.9359 424.632C81.2483 425.487 85.7239 424.74 89.5265 422.529C93.3292 420.319 96.1989 416.797 97.5997 412.621C99.0005 408.445 98.8365 403.901 97.1383 399.838C95.4402 395.774 92.3241 392.469 88.372 390.54V390.54Z" fill="#FFCE54"/>
</svg>
