<svg width="188" height="48" viewBox="0 0 188 48" fill="none" xmlns="http://www.w3.org/2000/svg">
<path d="M7.58239 23.8968C7.81917 24.7178 8.11394 25.5629 8.45702 26.4225C11.4917 34.0091 11.7188 39.2295 11.3564 42.3298C11.2278 42.9291 11.3187 43.5545 11.6125 44.0925C12.2068 45.1356 13.4101 45.5412 14.9225 45.5412C17.155 45.5412 20.0689 44.6575 22.7266 43.6095C23.1354 44.3328 23.7285 44.935 24.4457 45.3549C25.1629 45.7748 25.9786 45.9974 26.8098 46C27.3019 46.0004 27.7911 45.9238 28.2595 45.773C29.4435 45.392 30.4279 44.5573 30.9968 43.4519C31.5657 42.3465 31.6726 41.0607 31.2941 39.8766C31.2555 39.7559 31.2071 39.6351 31.1588 39.5192C34.783 37.4909 38.1592 35.0486 41.2195 32.2417C44.2155 29.3441 45.2689 27.0793 44.3508 25.4808C44.0901 25.0393 43.7029 24.6861 43.2394 24.4667L43.1766 24.4329C40.3304 23.2062 35.8654 20.357 30.7819 13.7362C30.2165 13.0022 29.6367 12.3164 29.0568 11.6935C27.6468 10.1864 25.886 9.05089 23.9311 8.38785C21.9761 7.7248 19.8875 7.55478 17.8509 7.89291L15.8745 4.4159C15.5938 3.87999 15.2079 3.40606 14.74 3.02237C14.272 2.63868 13.7316 2.35308 13.1508 2.18261C12.57 2.01214 11.9609 1.96029 11.3596 2.03014C10.7584 2.1 10.1774 2.29013 9.65126 2.5892C9.12512 2.88827 8.66463 3.29015 8.29725 3.77089C7.92986 4.25163 7.6631 4.80138 7.51287 5.38736C7.36264 5.97334 7.33202 6.58356 7.42284 7.18162C7.51365 7.77968 7.72404 8.35334 8.04145 8.8684L10.0227 12.3454C8.69683 13.9219 7.78049 15.8008 7.35484 17.8157C6.92918 19.8306 7.00734 21.9193 7.58239 23.8968V23.8968ZM13.7097 42.9045C13.7097 42.9045 13.7097 42.8659 13.7097 42.8465C13.7097 42.7113 13.7435 42.5664 13.758 42.4216C14.2412 41.0984 17.0294 37.8049 23.1422 33.8739L24.2632 37.3606C23.6086 37.7801 23.0691 38.3562 22.6936 39.0367C22.3182 39.7172 22.1185 40.4806 22.1129 41.2577C16.5462 43.4695 14.0044 43.2474 13.7097 42.9045ZM28.8393 42.354C28.5976 42.8227 28.2007 43.1932 27.7163 43.4023C27.2319 43.6114 26.6899 43.6462 26.1827 43.5008C25.6755 43.3553 25.2345 43.0385 24.9347 42.6045C24.635 42.1705 24.4952 41.6461 24.539 41.1205C24.5828 40.595 24.8076 40.1009 25.1751 39.7225C25.5425 39.344 26.03 39.1046 26.5543 39.045C27.0786 38.9855 27.6073 39.1094 28.0504 39.3958C28.4935 39.6821 28.8236 40.1132 28.9843 40.6155C29.0759 40.8997 29.1103 41.1992 29.0854 41.4968C29.0606 41.7944 28.9769 42.0841 28.8393 42.3491V42.354ZM29.6657 37.5924C29.4442 37.4222 29.2081 37.2719 28.9601 37.1433C28.2259 36.763 27.4038 36.5846 26.5779 36.6265L25.278 32.57L26.3652 31.9374C33.5701 27.8374 39.5717 26.0989 41.78 26.4853C41.8925 26.504 42.0027 26.5348 42.1086 26.577L42.1908 26.6157L42.2488 26.6495C42.5532 27.5235 39.1368 32.1885 29.6657 37.5924ZM10.9263 4.82638C11.4083 4.55277 11.9792 4.48148 12.5137 4.62815C13.0483 4.77483 13.5027 5.12749 13.7773 5.6087L15.4348 8.50622C14.1184 8.99392 12.8909 9.69375 11.8009 10.5779L10.1435 7.68042C10.0072 7.44171 9.91926 7.17847 9.88483 6.90578C9.8504 6.63309 9.8701 6.35629 9.9428 6.09121C10.0155 5.82613 10.1398 5.57798 10.3086 5.36095C10.4773 5.14392 10.6872 4.96226 10.9263 4.82638V4.82638ZM14.7389 11.5148C16.7321 10.3568 19.0589 9.90738 21.3403 10.2397C23.6217 10.5721 25.7233 11.6666 27.3027 13.3451C27.8294 13.9101 28.361 14.533 28.878 15.2091C32.3185 19.6906 35.532 22.5591 38.2187 24.3846C34.725 25.1379 30.0522 27.0648 25.1717 29.8367C21.7891 31.7684 16.8264 35.0716 13.845 38.2588C13.6323 35.0088 12.8109 30.7784 10.7088 25.5243C10.3947 24.7419 10.1241 23.9644 9.91152 23.2207C9.27891 21.0114 9.41145 18.6532 10.2876 16.5286C11.1638 14.4039 12.7323 12.6372 14.7389 11.5148V11.5148Z" fill="#32363D" stroke="#32363D" stroke-width="0.611112"/>
<path d="M13.5114 24.4039C14.3211 26.4152 15.0101 28.4728 15.5748 30.566C15.6136 30.7215 15.6829 30.8677 15.7788 30.9961C15.8748 31.1245 15.9953 31.2326 16.1334 31.314C16.2715 31.3954 16.4245 31.4485 16.5833 31.4702C16.7422 31.4919 16.9038 31.4818 17.0587 31.4404C17.2136 31.3991 17.3588 31.3273 17.4857 31.2293C17.6125 31.1314 17.7186 31.0091 17.7977 30.8697C17.8769 30.7304 17.9274 30.5766 17.9465 30.4175C17.9656 30.2584 17.9527 30.0971 17.9088 29.943C17.319 27.7563 16.5993 25.6068 15.7536 23.5057C15.5023 22.8731 15.2704 22.2694 15.1254 21.6996C14.8352 20.6608 14.905 19.5544 15.3234 18.5602C15.7419 17.566 16.4844 16.7425 17.4304 16.2233C17.5684 16.145 17.6896 16.0403 17.7872 15.9151C17.8847 15.79 17.9566 15.6469 17.9988 15.4939C18.0409 15.341 18.0526 15.1813 18.033 15.0239C18.0134 14.8665 17.963 14.7145 17.8846 14.5765C17.8062 14.4386 17.7015 14.3175 17.5762 14.22C17.451 14.1225 17.3078 14.0507 17.1548 14.0085C17.0018 13.9664 16.842 13.9547 16.6845 13.9743C16.5269 13.9939 16.3748 14.0443 16.2368 14.1226C14.8175 14.9088 13.7061 16.1517 13.0832 17.6492C12.4603 19.1468 12.3626 20.8108 12.8059 22.3708C12.9944 23.018 13.2312 23.7037 13.5114 24.4039Z" fill="#32363D" stroke="#32363D" stroke-width="0.611112"/>
<path d="M40.9586 15.4168L43.1186 13.0457C43.3346 12.8088 43.4475 12.4958 43.4325 12.1756C43.4176 11.8555 43.276 11.5544 43.0389 11.3386C42.8018 11.1228 42.4886 11.0099 42.1683 11.0249C41.8479 11.0398 41.5466 11.1813 41.3307 11.4183L39.1707 13.7894C38.9548 14.0263 38.8418 14.3393 38.8568 14.6595C38.8717 14.9796 39.0133 15.2807 39.2504 15.4965C39.4875 15.7123 39.8007 15.8252 40.121 15.8102C40.4414 15.7953 40.7427 15.6538 40.9586 15.4168V15.4168Z" fill="#FFCE54"/>
<path d="M45.4337 17.7396L42.2638 18.7054C42.1121 18.7524 41.9712 18.8287 41.849 18.9301C41.7269 19.0314 41.6259 19.1558 41.5519 19.2962C41.4778 19.4365 41.4322 19.5901 41.4175 19.7481C41.4029 19.9061 41.4195 20.0654 41.4664 20.217C41.5134 20.3685 41.5898 20.5094 41.6912 20.6315C41.7926 20.7535 41.9171 20.8544 42.0576 20.9284C42.198 21.0024 42.3517 21.048 42.5098 21.0627C42.6678 21.0773 42.8273 21.0607 42.9789 21.0138L46.1489 20.048C46.4552 19.9532 46.7112 19.7407 46.8608 19.4572C47.0103 19.1737 47.041 18.8425 46.9462 18.5364C46.8513 18.2303 46.6387 17.9744 46.3551 17.825C46.0714 17.6755 45.74 17.6448 45.4337 17.7396V17.7396Z" fill="#FFCE54"/>
<path d="M34.5613 13.7507C34.839 13.7496 35.1078 13.653 35.3226 13.4771C35.5373 13.3012 35.6849 13.0567 35.7404 12.7848L36.4169 9.53963C36.4606 9.23495 36.3862 8.92508 36.2089 8.67338C36.0316 8.42168 35.7649 8.24716 35.4631 8.18549C35.1614 8.12382 34.8474 8.17967 34.5855 8.3416C34.3236 8.50354 34.1334 8.75934 34.0539 9.05671L33.3774 12.3019C33.3416 12.4774 33.3453 12.6586 33.3882 12.8324C33.431 13.0062 33.5121 13.1684 33.6254 13.307C33.7387 13.4457 33.8815 13.5575 34.0434 13.6342C34.2052 13.7109 34.3822 13.7507 34.5613 13.7507Z" fill="#FFCE54"/>
<path d="M1.5765 36.6605L4.71745 36.0134C4.87292 35.9817 5.02062 35.9197 5.15211 35.8309C5.28361 35.7421 5.39632 35.6284 5.48382 35.4961C5.57132 35.3638 5.63189 35.2156 5.66207 35.0599C5.69226 34.9042 5.69146 34.7441 5.65973 34.5888C5.628 34.4334 5.56596 34.2858 5.47715 34.1544C5.38834 34.023 5.2745 33.9103 5.14213 33.8229C5.00976 33.7354 4.86145 33.6749 4.70567 33.6447C4.5499 33.6146 4.3897 33.6154 4.23423 33.6471L1.09328 34.2942C0.772883 34.3262 0.478337 34.4841 0.274438 34.7332C0.070539 34.9822 -0.0260106 35.302 0.00602903 35.6222C0.0380687 35.9424 0.196073 36.2368 0.445283 36.4405C0.694493 36.6443 1.01449 36.7408 1.33489 36.7088C1.41684 36.7008 1.49779 36.6846 1.5765 36.6605V36.6605Z" fill="#FFCE54"/>
<path d="M4.42735 41.0549C4.30539 41.16 4.20567 41.2883 4.13405 41.4324C4.06243 41.5765 4.02035 41.7335 4.0103 41.894C4.00024 42.0546 4.0224 42.2156 4.07547 42.3675C4.12855 42.5194 4.21148 42.6592 4.31937 42.7786C4.42727 42.898 4.55796 42.9947 4.70377 43.0629C4.84958 43.1311 5.00757 43.1695 5.16844 43.1758C5.32931 43.1822 5.48983 43.1563 5.64056 43.0998C5.79129 43.0432 5.92918 42.9571 6.04615 42.8466L8.51058 40.6251C8.63254 40.5201 8.73226 40.3918 8.80388 40.2477C8.8755 40.1036 8.91758 39.9466 8.92764 39.786C8.9377 39.6254 8.91554 39.4645 8.86246 39.3126C8.80938 39.1607 8.72646 39.0209 8.61856 38.9015C8.51066 38.7821 8.37997 38.6854 8.23416 38.6172C8.08835 38.549 7.93036 38.5106 7.76949 38.5042C7.60862 38.4979 7.4481 38.5238 7.29737 38.5803C7.14665 38.6369 7.00875 38.7229 6.89179 38.8335L4.42735 41.0549Z" fill="#FFCE54"/>
<path d="M5.89993 27.9341L2.78315 26.8475C2.48104 26.7476 2.15168 26.7708 1.86663 26.9122C1.58157 27.0536 1.36384 27.3016 1.26073 27.6025C1.15762 27.9034 1.17746 28.2327 1.31594 28.5191C1.45442 28.8054 1.70036 29.0255 2.00033 29.1317L5.13644 30.2038C5.42434 30.2607 5.72314 30.211 5.97701 30.0638C6.23088 29.9166 6.42247 29.6822 6.51599 29.4042C6.6095 29.1261 6.59855 28.8236 6.48518 28.5531C6.37181 28.2826 6.16378 28.0625 5.89993 27.9341V27.9341Z" fill="#FFCE54"/>
<path d="M61.0633 13.1818V35H65.5377V20.7457H65.7188L71.3651 34.8935H74.412L80.0583 20.799H80.2394V35H84.7139V13.1818H79.0249L73.0164 27.8409H72.7607L66.7522 13.1818H61.0633ZM87.7645 35H101.731V31.1967H92.3774V13.1818H87.7645V35ZM122.285 13.1818H117.694V26.9034H117.502L108.084 13.1818H104.036V35H108.649V21.2678H108.809L118.301 35H122.285V13.1818ZM132.655 35.3196C137.619 35.3196 140.709 31.9212 140.709 26.8821C140.709 21.8111 137.619 18.4233 132.655 18.4233C127.69 18.4233 124.601 21.8111 124.601 26.8821C124.601 31.9212 127.69 35.3196 132.655 35.3196ZM132.676 31.804C130.386 31.804 129.214 29.7053 129.214 26.8501C129.214 23.995 130.386 21.8857 132.676 21.8857C134.924 21.8857 136.096 23.995 136.096 26.8501C136.096 29.7053 134.924 31.804 132.676 31.804ZM151.614 18.6364H148.535V14.7159H143.996V18.6364H141.759V22.0455H143.996V30.5682C143.975 33.7749 146.159 35.3622 149.451 35.2237C150.623 35.1811 151.454 34.9467 151.912 34.7976L151.198 31.4205C150.974 31.4631 150.495 31.5696 150.069 31.5696C149.163 31.5696 148.535 31.2287 148.535 29.9716V22.0455H151.614V18.6364ZM153.82 35H158.358V18.6364H153.82V35ZM156.1 16.527C157.453 16.527 158.561 15.4936 158.561 14.2259C158.561 12.9688 157.453 11.9354 156.1 11.9354C154.757 11.9354 153.649 12.9688 153.649 14.2259C153.649 15.4936 154.757 16.527 156.1 16.527ZM170.043 18.6364H166.794V17.5391C166.794 16.4311 167.242 15.7812 168.573 15.7812C169.117 15.7812 169.671 15.8984 170.033 16.0156L170.832 12.6065C170.267 12.4361 169.021 12.1591 167.625 12.1591C164.546 12.1591 162.256 13.8956 162.256 17.4538V18.6364H159.944V22.0455H162.256V35H166.794V22.0455H170.043V18.6364ZM174.868 41.1364C178.245 41.1364 180.035 39.4105 180.962 36.7685L187.322 18.6577L182.517 18.6364L179.097 30.6534H178.927L175.539 18.6364H170.766L176.636 35.4688L176.37 36.1612C175.773 37.6953 174.633 37.7699 173.035 37.2798L172.013 40.6676C172.663 40.9446 173.717 41.1364 174.868 41.1364Z" fill="#32363D"/>
</svg>
